<svg xmlns="http://www.w3.org/2000/svg" width="1200" height="900" viewBox="0 0 1200 900" preserveAspectRatio="xMidYMid slice">
  <defs>
    <linearGradient id="col" x1="0" y1="0" x2="1" y2="0">
      <stop offset="0" stop-color="#2a2419"/>
      <stop offset="0.5" stop-color="#3a3327"/>
      <stop offset="1" stop-color="#1c1810"/>
    </linearGradient>
    <linearGradient id="flute" x1="0" y1="0" x2="1" y2="0">
      <stop offset="0" stop-color="#000" stop-opacity="0.5"/>
      <stop offset="0.5" stop-color="#000" stop-opacity="0"/>
      <stop offset="1" stop-color="#000" stop-opacity="0.5"/>
    </linearGradient>
  </defs>
  <g opacity="0.9">
    <!-- left column -->
    <g transform="translate(120 0)">
      <rect x="0" y="120" width="150" height="700" fill="url(#col)"/>
      <rect x="0" y="120" width="150" height="700" fill="url(#flute)"/>
      <rect x="-18" y="90" width="186" height="34" rx="4" fill="#3a3327"/>
      <rect x="-10" y="820" width="170" height="40" rx="4" fill="#2a2419"/>
      <path d="M0 120 q75 -46 150 0" fill="none" stroke="#C9A227" stroke-opacity="0.35" stroke-width="3"/>
    </g>
    <!-- right column -->
    <g transform="translate(930 0)">
      <rect x="0" y="120" width="150" height="700" fill="url(#col)"/>
      <rect x="0" y="120" width="150" height="700" fill="url(#flute)"/>
      <rect x="-18" y="90" width="186" height="34" rx="4" fill="#3a3327"/>
      <rect x="-10" y="820" width="170" height="40" rx="4" fill="#2a2419"/>
      <path d="M0 120 q75 -46 150 0" fill="none" stroke="#C9A227" stroke-opacity="0.35" stroke-width="3"/>
    </g>
  </g>
</svg>
